Coordinates
version=1
nRows=19
nColumns=36
inDegrees=yes

Units are S.I. units (second, meters, Newtons, ...)
If the header above contains a line with 'inDegrees', this indicates whether rotational values are in degrees (yes) or radians (no).

endheader
time	pelvis_tilt	pelvis_list	pelvis_rotation	pelvis_tx	pelvis_ty	pelvis_tz	hip_flexion_r	hip_adduction_r	hip_rotation_r	knee_angle_r	knee_angle_r_beta	ankle_angle_r	subtalar_angle_r	mtp_angle_r	hip_flexion_l	hip_adduction_l	hip_rotation_l	knee_angle_l	knee_angle_l_beta	ankle_angle_l	subtalar_angle_l	mtp_angle_l	lumbar_extension	lumbar_bending	lumbar_rotation	arm_flex_r	arm_add_r	arm_rot_r	elbow_flex_r	pro_sup_r	arm_flex_l	arm_add_l	arm_rot_l	elbow_flex_l	pro_sup_l
      5.30000000	     12.58794622	      5.60195826	     12.43193583	      0.97593150	      0.71651149	      0.19382715	     34.87143571	      2.27099076	     -4.05390774	     90.10515306	      1.57263159	     37.37117865	     -2.87247457	     -7.49999987	     34.92664768	      3.37729753	     -1.46120936	     89.35641280	      1.55956361	     26.74369993	    -21.06759480	     -7.49999987	    -29.91194812	      1.92843546	      4.38438073	     18.35581789	    -11.77340590	     53.60160940	     14.73051789	     52.88813974	      7.01663684	     -5.91075911	     40.03131424	     16.13645218	     59.70041644
      5.31666670	     11.97680393	      5.74870734	     12.41861169	      0.97362033	      0.72167380	      0.19612458	     34.80032612	      1.98735587	     -3.87836563	     88.48264138	      1.54431342	     37.09498186	     -2.41921105	     -7.49999987	     35.10974182	      4.03644641	     -1.12749382	     87.94895620	      1.53499886	     25.92789921	    -21.27904953	     -7.49999987	    -28.84926040	      1.79484972	      4.45965208	     18.98447587	    -11.64127882	     52.14074144	     15.14899099	     53.12778361	      6.44687384	     -5.53413446	     40.03153379	     16.13358375	     59.73104621
      5.33333330	     11.44558489	      5.92667320	     12.49851467	      0.97047731	      0.73412994	      0.19734080	     34.56743164	      1.55529861	     -3.90072928	     86.56005578	      1.51075797	     35.58482196	     -2.36724878	     -7.49999987	     34.75848321	      4.84489457	     -0.64537744	     85.72284234	      1.49614584	     23.13766017	    -23.19745205	     -7.49999987	    -27.84236173	      1.83757960	      5.60068971	     17.68488043	    -11.69938157	     38.31810508	     17.22874461	     63.71223460	      7.08084832	     -5.60873473	     39.05203454	     17.79744085	     62.57777959
      5.35000000	     11.77452858	      6.30712632	     12.54428371	      0.96892522	      0.74774620	      0.19958659	     32.47051212	      1.20548763	     -4.11979569	     83.26802270	      1.45330116	     34.37189509	     -2.39550203	     -7.49999987	     32.74186462	      5.68111404	     -0.02277333	     82.55399375	      1.44083900	     21.14425776	    -24.59043442	     -7.49999987	    -27.65909314	      1.98620625	      6.33257883	     17.00794206	    -11.45840635	     29.02975303	     18.91086812	     69.90414706	      6.91427710	     -5.51869825	     32.54751379	     20.56635756	     68.00075380
      5.36666670	     11.92209456	      6.65306285	     12.63397868	      0.96582807	      0.75780008	      0.20213239	     31.12010278	      0.71022548	     -4.35685139	     80.70789298	      1.40861846	     33.27068389	     -2.16883088	     -7.49999987	     30.90680283	      6.39633329	      0.64827012	     79.43239408	      1.38635681	     19.09136698	    -25.78846008	     -7.49999987	    -27.50145359	      2.09886696	      6.81501672	     16.79769841	    -11.21846915	     24.15463593	     20.55981856	     69.60095087	      6.37743702	     -5.71560640	     28.08327576	     24.23023891	     67.61432372
      5.38333330	     11.20409543	      6.66737365	     12.93968888	      0.96156339	      0.76819613	      0.20615631	     30.80872669	      0.67190761	     -4.55749288	     77.95789497	      1.36062195	     32.43547415	     -1.81420765	     -7.49999987	     30.28772387	      6.52250266	      1.06166347	     76.37513574	      1.33299759	     18.59371981	    -25.50263438	     -7.49999987	    -26.11798755	      1.93272431	      7.13844099	     16.81071160	    -10.75999758	     23.95236828	     20.86570193	     69.67852487	      5.83321648	     -5.59415512	     27.84685083	     24.13522826	     67.61888863
      5.40000000	     12.52048843	      7.23037660	     13.32350019	      0.95583172	      0.78285502	      0.21352829	     27.83985012	      0.53057550	     -5.16702017	     74.42705828	      1.29899722	     31.58932181	     -1.88095214	     -7.49999987	     27.19968637	      6.56596871	      1.55157401	     72.58953566	      1.26692640	     15.26849087	    -27.60221425	     -7.49999987	    -28.17170188	      1.44658540	      7.22402226	     16.66815153	     -9.82093794	     16.65133730	     23.39211274	     71.90234400	      6.07830829	     -4.83603317	     21.31106230	     24.37707783	     68.08374187
      5.41666670	     12.41674290	      6.92693755	     14.13405421	      0.94781344	      0.79728999	      0.22091845	     26.61818958	      1.38606514	     -5.69090144	     70.17025600	      1.22470200	     29.97929638	     -3.32716638	     -7.49999987	     26.18058771	      5.63402483	      1.91730548	     69.13135248	      1.20656972	     13.54750694	    -27.49458871	     -7.49999987	    -28.23552992	      1.55200182	      7.10740919	     16.98994500	     -9.19057188	     15.37061406	     24.22139369	     72.71161468	      6.32762690	     -4.81599562	     20.34591999	     24.01821070	     68.43917066
      5.43333330	     11.03703250	      6.65166075	     14.80222460	      0.94283641	      0.81119719	      0.22584693	     26.27353900	      1.71579324	     -6.04356990	     65.62429661	      1.14536005	     29.29335392	     -3.04324717	     -7.49999987	     25.96221770	      5.03982714	      2.18005114	     64.86422602	      1.13209431	     12.20522389	    -26.24797347	     -7.49999987	    -26.63747362	      1.14101202	      7.02503715	     16.83900116	     -8.53431949	     15.22554006	     24.62005048	     72.84357312	      6.19188123	     -5.04253526	     20.11238730	     23.94120227	     68.47421136
      5.45000000	     13.97926257	      7.06634647	     15.01948900	      0.93461349	      0.83351718	      0.23335864	     20.21324289	      2.83442026	     -6.15553179	     59.16072590	      1.03254945	     26.49784313	     -5.34341705	     -7.49999987	     20.29101664	      3.88050602	      2.34684301	     59.43193338	      1.03728292	      9.44120235	    -26.52356178	     -7.49999987	    -30.86251312	      1.18756006	      7.14380597	     17.22567038	     -7.53930134	      7.78399962	     27.33013558	     81.97250267	      6.97304138	     -4.33245650	     13.70974128	     24.11032812	     72.95022673
      5.46666670	     15.63037360	      7.22792325	     15.05882612	      0.92571725	      0.85530110	      0.24197164	     15.79278803	      4.01695557	     -5.87276290	     52.79517806	      0.92144969	     24.36888690	     -7.52546208	     -7.49999987	     15.86092398	      2.72010916	      2.34684595	     53.64809983	      0.93633598	      8.42096946	    -24.05669131	     -7.49999987	    -33.12592159	      1.02608867	      7.19573936	     17.96967532	     -7.17955377	      8.20562900	     28.42120334	     82.34808992	      7.65759317	     -4.45080366	     13.40171392	     24.09683791	     73.18779916
      5.48333330	     17.08520890	      7.06005965	     14.98328115	      0.91843049	      0.87252289	      0.25120983	     11.72365693	      5.47023678	     -5.30966150	     46.39706082	      0.80978147	     22.12110525	    -10.73530788	     -7.49999987	     11.68539436	      1.24341236	      2.14761251	     47.68316110	      0.83222816	      6.35221965	    -22.55225649	     -7.49999987	    -35.06173046	      1.07262397	      7.42967735	     18.70853252	     -6.85407276	      8.44922895	     29.25418753	     82.46810442	      8.25294196	     -4.51794530	     12.66081844	     24.03436862	     73.12706194
      5.50000000	     18.92310853	      7.39783078	     14.79032816	      0.91030792	      0.88955922	      0.26153503	      7.48143974	      6.27227605	     -5.18695042	     40.85259793	      0.71301234	     21.54447946	    -12.34540341	     -7.49999987	      7.14005740	      0.09209495	      1.23777304	     41.84120463	      0.73026678	      4.16690527	    -21.14677781	     -7.49999987	    -37.66241822	      0.65479037	      7.38766308	     19.42325503	     -6.53378409	      9.11342184	     30.78584757	     82.87565310	      8.64595276	     -4.85294011	     11.39970525	     25.21283386	     73.23524817
      5.51666670	     20.30675471	      7.63913376	     14.37777612	      0.90603176	      0.89963992	      0.26991303	      4.14346879	      6.71821626	     -5.40372972	     36.77259411	      0.64180284	     21.34149052	    -13.49393276	     -7.49999987	      3.02330164	     -0.87598225	      0.25664586	     36.18610209	      0.63156662	      3.73175278	    -18.55685551	     -7.49999987	    -39.43187916	      0.11970308	      7.60920410	     20.07964807	     -6.30628862	      9.82675033	     31.60792618	     83.14820471	      9.04015894	     -5.05961883	     10.53733482	     25.47560131	     73.29407667
      5.53333330	     21.62444894	      8.17522963	     13.69418343	      0.90128119	      0.91374998	      0.27504972	      1.20356064	      6.44370595	     -6.06590194	     34.58440186	      0.60361168	     21.64779499	    -13.09778405	     -7.49999987	     -1.22801078	     -1.10994305	     -1.04945741	     30.74212861	      0.53655136	      3.55074990	    -16.55424679	     -7.49999987	    -40.87481522	     -0.71251198	      7.62985713	     20.55802601	     -6.09736371	     10.87680477	     32.25601892	     83.34318601	      9.20454563	     -5.27679604	      9.90694471	     25.65762472	     73.44522029
      5.55000000	     22.88675350	      8.76306285	     13.09028005	      0.89641938	      0.92483008	      0.28136339	     -1.01457070	      5.72093695	     -7.33693163	     34.46155106	      0.60146753	     22.16623178	    -12.00305362	     -7.49999987	     -5.59663932	     -1.03429283	     -2.14741302	     24.99043278	      0.43616533	      2.99621279	    -14.75077455	     -7.49999987	    -42.12366468	     -1.44573770	      7.66634642	     20.84413766	     -6.03250882	     11.59468249	     32.89027335	     83.63196096	      9.22482348	     -5.52434182	      9.37221948	     26.12051696	     73.57268218
      5.56666670	     23.33636302	      9.26018775	     12.36136673	      0.89235727	      0.92703996	      0.28761459	     -1.33265290	      4.55293733	     -8.41365859	     37.09524317	      0.64743413	     21.79862598	    -12.49160984	     -7.49999987	     -8.63162677	     -0.69803689	     -3.67786747	     20.06615309	      0.35022044	      3.55331056	    -13.31348946	     -7.49999987	    -42.54126276	     -2.38848549	      7.61480181	     21.07193253	     -5.93284649	     12.60777778	     33.22120336	     82.73900552	      9.12394634	     -5.79407785	      8.82576963	     26.41576087	     72.82645599
      5.58333330	     23.42938440	      9.72499624	     11.89293582	      0.88962142	      0.93050387	      0.29241955	     -0.91777732	      2.94305332	     -9.53821884	     41.39080489	      0.72240583	     20.26023273	    -13.65805852	     -7.49999987	    -10.81454026	     -0.16063531	     -4.79524524	     16.27383842	      0.28403206	      5.52667256	    -10.80837244	     -7.49999987	    -42.52428354	     -3.21181362	      7.52879630	     20.83942735	     -6.06225253	     13.13112430	     34.06160702	     82.36671105	      8.85494430	     -6.06556718	      8.73274302	     26.87288148	     72.39683641
      5.60000000	     23.22668528	     10.34626848	     11.23980072	      0.88696874	      0.92579052	      0.29817092	      0.39168990	      0.97598242	     -9.74218397	     47.72077776	      0.83288469	     17.44274014	    -17.14631889	     -7.49999987	    -12.19396516	      0.61814886	     -5.87514714	     13.40306152	      0.23392755	      7.94901295	     -8.96339256	     -7.49999987	    -42.18616526	     -4.32391533	      7.50190292	     20.63812671	     -6.01733366	     13.54419056	     34.40161870	     81.62142642	      8.71681265	     -6.38762687	      8.63528176	     26.87740693	     71.87097908
